<?xml version="1.0" encoding="utf-8"?>
<!-- Generator: Adobe Illustrator 16.0.2, SVG Export Plug-In . SVG Version: 6.00 Build 0)  -->
<!DOCTYPE svg PUBLIC "-//W3C//DTD SVG 1.1//EN" "http://www.w3.org/Graphics/SVG/1.1/DTD/svg11.dtd">
<svg version="1.1" id="Layer_1" xmlns="http://www.w3.org/2000/svg" xmlns:xlink="http://www.w3.org/1999/xlink" x="0px" y="0px"
	 width="512px" height="512px" viewBox="0 0 512 512" enable-background="new 0 0 512 512" xml:space="preserve">
<g>
	
		<linearGradient id="SVGID_1_" gradientUnits="userSpaceOnUse" x1="-5.1572" y1="523.5947" x2="11.9088" y2="506.5287" gradientTransform="matrix(30 0 0 -30 154.8594 15708)">
		<stop  offset="0" style="stop-color:#2563EB"/>
		<stop  offset="1" style="stop-color:#1D4ED8"/>
	</linearGradient>
	<circle fill="url(#SVGID_1_)" cx="256" cy="256" r="256"/>
</g>
<g>
	<path fill="#FFFFFF" d="M82.394,329.01l83.891-8.002c5.047,27.625,15.292,47.912,30.73,60.865
		c15.438,12.957,36.265,19.432,62.48,19.432c27.768,0,48.69-5.76,62.772-17.289c14.077-11.523,21.118-25.002,21.118-40.434
		c0-9.902-2.963-18.332-8.884-25.289c-5.926-6.951-16.267-13.002-31.022-18.145c-10.1-3.43-33.111-9.523-69.034-18.289
		c-46.22-11.237-78.647-25.047-97.29-41.433c-26.216-23.047-39.324-51.149-39.324-84.296c0-21.333,6.163-41.291,18.497-59.865
		c12.33-18.574,30.099-32.719,53.306-42.434c23.203-9.715,51.216-14.573,84.036-14.573c53.597,0,93.939,11.528,121.029,34.576
		c27.09,23.052,41.313,53.819,42.674,92.297l-86.222,3.715c-3.69-21.525-11.605-37.005-23.739-46.435
		c-12.139-9.43-30.344-14.145-54.616-14.145c-25.051,0-44.667,5.05-58.84,15.145c-9.13,6.479-13.69,15.145-13.69,26.003
		c0,9.908,4.27,18.386,12.816,25.432c10.873,8.956,37.285,18.288,79.229,28.003c41.945,9.715,72.968,19.766,93.066,30.146
		c20.099,10.385,35.828,24.575,47.188,42.577s17.04,40.246,17.04,66.723c0,24.002-6.8,46.482-20.39,67.438
		c-13.595,20.957-32.82,36.531-57.675,46.719c-24.859,10.189-55.832,15.289-92.921,15.289c-53.987,0-95.446-12.238-124.379-36.719
		C105.305,411.547,88.023,375.873,82.394,329.01z"/>
</g>
</svg>
